<?xml version="1.0" standalone="no"?>
<!DOCTYPE svg PUBLIC "-//W3C//DTD SVG 20010904//EN"
 "http://www.w3.org/TR/2001/REC-SVG-20010904/DTD/svg10.dtd">
<svg version="1.0" xmlns="http://www.w3.org/2000/svg"
 width="784.000000pt" height="784.000000pt" viewBox="0 0 784.000000 784.000000"
 preserveAspectRatio="xMidYMid meet">
<metadata>
Created by potrace 1.11, written by Peter Selinger 2001-2013
</metadata>
<g transform="translate(0.000000,784.000000) scale(0.100000,-0.100000)"
fill="#000000" stroke="none">
<path d="M3210 7335 c-274 -46 -537 -207 -692 -425 -55 -78 -75 -116 -483
-925 -175 -346 -418 -828 -540 -1070 -122 -242 -345 -683 -495 -980 -150 -297
-350 -693 -445 -880 -476 -938 -494 -978 -531 -1155 -22 -102 -24 -309 -5
-420 74 -425 373 -774 786 -917 120 -41 204 -55 350 -58 156 -3 254 10 380 51
180 59 273 116 627 385 248 189 750 569 993 753 105 79 249 188 320 243 184
139 998 755 1002 758 1 0 -24 52 -56 115 -343 681 -474 936 -480 943 -4 4 -95
-58 -202 -139 -313 -237 -579 -438 -801 -606 -115 -87 -459 -348 -766 -580
-306 -232 -649 -491 -762 -576 -113 -85 -211 -160 -219 -166 -13 -10 394 803
869 1739 81 160 300 592 486 960 186 369 447 885 579 1148 133 263 246 478
251 477 10 -1 78 -135 616 -1200 187 -371 429 -850 538 -1065 303 -599 626
-1238 970 -1920 476 -944 447 -891 580 -1026 162 -163 322 -246 565 -293 87
-17 276 -13 370 7 367 81 651 335 770 690 54 161 53 134 53 1742 0 1382 -1
1497 -17 1591 -22 125 -44 196 -91 300 -140 306 -420 548 -738 639 -314 89
-643 51 -917 -108 -76 -44 -335 -235 -335 -247 0 -9 520 -1042 530 -1054 5 -4
92 56 195 134 102 78 188 140 191 138 2 -3 3 -496 2 -1095 l-3 -1091 -198 391
c-109 216 -289 572 -401 792 -111 220 -343 679 -515 1020 -173 341 -398 787
-501 990 -103 204 -308 609 -455 900 -147 292 -283 557 -303 590 -119 201
-306 357 -534 445 -150 58 -380 81 -538 55z"/>
<path d="M7035 7248 c-240 -28 -459 -181 -563 -394 -55 -110 -72 -179 -77
-306 -15 -391 302 -728 697 -742 189 -7 405 77 533 208 85 87 167 231 195 341
18 74 21 230 5 310 -44 231 -205 435 -415 524 -99 42 -118 48 -205 57 -84 10
-102 10 -170 2z"/>
</g>
</svg>
